<svg width="22" height="22" viewBox="0 0 22 22" fill="none" xmlns="http://www.w3.org/2000/svg">
<path fill-rule="evenodd" clip-rule="evenodd" d="M12.2488 11.9691L15.4176 15.138L4.22644 21.3553C3.72321 21.6349 3.1765 21.6717 2.69077 21.5272L12.2488 11.9691ZM12.2488 9.93148L2.76858 0.451276C3.2344 0.33281 3.74991 0.379861 4.22644 0.644604L15.3538 6.82647L12.2488 9.93148ZM13.2676 10.9503L16.6637 7.55421L19.7173 9.25061C21.0897 10.0131 21.0897 11.9868 19.7173 12.7493L16.7275 14.4102L13.2676 10.9503ZM11.23 10.9503L1.53889 20.6414C1.3592 20.345 1.25342 19.9936 1.25342 19.606L1.25342 2.39394C1.25342 1.97945 1.37438 1.60638 1.57731 1.29767L11.23 10.9503Z" fill="white"/>
</svg>
