<?xml version="1.0" encoding="UTF-8"?>
<svg fill="none" viewBox="0 0 104 18" xmlns="http://www.w3.org/2000/svg">
<path d="m4.0254 10.44h3.4325l-0.42318 2.3353h-6.5202l1.9592-11.05h3.072l-1.5203 8.7145zm7.3992-7.2725c-0.4807 0-0.8621-0.12017-1.1442-0.36049-0.2717-0.24033-0.4075-0.54857-0.4075-0.92474 0-0.33437 0.08882-0.64261 0.2665-0.92473 0.188-0.29257 0.4388-0.52245 0.7523-0.68963 0.3239-0.17763 0.6844-0.26645 1.0814-0.26645 0.4807 0 0.8569 0.12539 1.1285 0.37616 0.2822 0.24033 0.4232 0.5538 0.4232 0.94041 0 0.33436-0.094 0.64261-0.2821 0.92473-0.1776 0.28212-0.4284 0.50678-0.7523 0.67396s-0.6792 0.25078-1.0658 0.25078zm1.3792 0.81502-1.5516 8.7928h-3.0877l1.5673-8.7928h3.072zm7.4683-0.07837c0.8568 0 1.5256 0.25077 2.0062 0.75233 0.4911 0.4911 0.7367 1.1755 0.7367 2.0532 0 0.29257-0.0314 0.60604-0.0941 0.94041l-0.909 5.1252h-3.072l0.8307-4.7177c0.0313-0.15674 0.047-0.2978 0.047-0.42318 0-0.37617-0.1097-0.66874-0.3291-0.87772-0.209-0.20898-0.5068-0.31347-0.8934-0.31347-0.4389 0-0.8098 0.13584-1.1128 0.40751-0.3031 0.27167-0.5068 0.64784-0.6113 1.1285l-0.8464 4.7961h-3.0877l1.5674-8.7928h3.072l-0.2194 1.2539c0.3448-0.39706 0.768-0.71575 1.2695-0.95608 0.5016-0.25077 1.0501-0.37616 1.6457-0.37616zm9.8653 4.4983 2.7428 4.3729h-3.746l-1.7711-3.5892-0.6426 3.5892h-3.0876l2.0532-11.598h3.0877l-1.0972 6.238 3.025-3.4325h3.6833l-4.2475 4.4199zm7.4344 4.4826c-0.7314 0-1.3845-0.1097-1.9591-0.3291-0.5747-0.2194-1.024-0.5277-1.348-0.9248-0.3239-0.4075-0.4858-0.8724-0.4858-1.3949 0-0.094 0.0104-0.2351 0.0313-0.42317h2.9623c-0.0105 0.29257 0.0784 0.51727 0.2664 0.67397 0.1881 0.1567 0.4493 0.2351 0.7837 0.2351 0.2612 0 0.4754-0.0523 0.6426-0.1567 0.1777-0.1045 0.2665-0.2404 0.2665-0.4076 0-0.19849-0.1097-0.35-0.3292-0.45449-0.2194-0.11494-0.5851-0.256-1.0971-0.42318-0.5956-0.18808-1.0867-0.37094-1.4733-0.54857s-0.7262-0.43886-1.0188-0.78368c-0.2821-0.34481-0.4232-0.78889-0.4232-1.3322 0-0.52245 0.1515-0.99265 0.4546-1.4106 0.3134-0.41796 0.7523-0.74188 1.3165-0.97176 0.5643-0.24032 1.2173-0.36049 1.9592-0.36049 0.7941 0 1.4785 0.13584 2.0532 0.40751 0.5852 0.26123 1.0188 0.62694 1.3009 1.0972 0.2926 0.4702 0.4232 0.99265 0.3919 1.5673h-2.7586c0.0105-0.28212-0.0731-0.50155-0.2507-0.65828-0.1777-0.16719-0.4337-0.25078-0.768-0.25078-0.2404 0-0.4389 0.05225-0.5956 0.15674-0.1568 0.10449-0.2351 0.24032-0.2351 0.40751 0 0.19853 0.1097 0.35526 0.3291 0.4702 0.2299 0.11494 0.6113 0.26122 1.1442 0.43886 0.5851 0.18808 1.071 0.37616 1.4576 0.56424 0.3971 0.17763 0.7367 0.43363 1.0188 0.768 0.2821 0.32392 0.4232 0.74188 0.4232 1.2538 0 0.8673-0.3762 1.5517-1.1285 2.0533-0.7523 0.4911-1.7293 0.7366-2.931 0.7366zm9.1727-3.4011c-0.0105 0.05225-0.0157 0.11494-0.0157 0.18809 0 0.16718 0.047 0.29257 0.1411 0.37613 0.1045 0.0732 0.2717 0.1097 0.5015 0.1097h0.8934l-0.4702 2.6175h-1.3479c-1.9122 0-2.8682-0.8046-2.8682-2.4137 0-0.2717 0.0313-0.57992 0.094-0.92474l0.5172-2.8996h-1.0815l0.4546-2.5548h1.0814l0.3762-2.1316h3.0877l-0.3762 2.1316h1.583l-0.4545 2.5548h-1.583l-0.5329 2.9466zm2.6766-1.1128c0.1672-0.90906 0.4754-1.7032 0.9247-2.3824s0.9875-1.2016 1.6144-1.5674c0.6374-0.36571 1.3061-0.54857 2.0062-0.54857 0.6061 0 1.1076 0.12017 1.5047 0.36049 0.397 0.24033 0.6739 0.56425 0.8307 0.97176l0.2194-1.2225h3.072l-1.5517 8.7928h-3.072l0.2194-1.2225c-0.303 0.4075-0.7 0.7314-1.1911 0.9717-0.4911 0.2404-1.0345 0.3605-1.6301 0.3605-0.9195 0-1.6561-0.303-2.2099-0.909-0.5538-0.6165-0.8307-1.4524-0.8307-2.5078 0-0.34482 0.0313-0.71053 0.094-1.0971zm6.3321 0c0.0313-0.15674 0.047-0.30302 0.047-0.43886 0-0.43886-0.1254-0.77845-0.3762-1.0188-0.2403-0.24033-0.5538-0.36049-0.9404-0.36049-0.4597 0-0.8725 0.16195-1.2382 0.48587-0.3657 0.31347-0.5956 0.75755-0.6896 1.3322-0.0313 0.15673-0.047 0.30824-0.047 0.45453 0 0.43886 0.1201 0.77845 0.3605 1.0188 0.2507 0.24033 0.5694 0.36053 0.956 0.36053 0.4598 0 0.8725-0.162 1.2383-0.48591 0.3657-0.32392 0.5955-0.77323 0.6896-1.3479zm8.8173-4.4983c0.5956 0 1.0919 0.12017 1.489 0.36049 0.4075 0.24033 0.6896 0.56425 0.8463 0.97176l0.2195-1.2225h3.072l-1.536 8.6988c-0.1463 0.8254-0.4337 1.5673-0.8621 2.2256-0.4284 0.6687-1.0083 1.2016-1.7397 1.5987-0.7315 0.3971-1.6039 0.5956-2.6175 0.5956-1.2852 0-2.2831-0.2926-2.9936-0.8777-0.7001-0.5747-1.0502-1.3636-1.0502-2.3667l0.0157-0.3135h3.025c0.0209 0.2821 0.1411 0.5016 0.3605 0.6583 0.2299 0.1567 0.5381 0.2351 0.9247 0.2351 1.0449 0 1.6666-0.5851 1.8652-1.7554l0.2037-1.1285c-0.303 0.4075-0.7001 0.7314-1.1912 0.9717-0.4806 0.2404-1.0187 0.3605-1.6143 0.3605-0.9195 0-1.6614-0.303-2.2257-0.909-0.5538-0.6165-0.8307-1.4524-0.8307-2.5078 0-0.34482 0.0314-0.71053 0.0941-1.0971 0.1672-0.90906 0.4754-1.7032 0.9247-2.3824s0.9874-1.2016 1.6144-1.5674c0.6374-0.36571 1.3061-0.54857 2.0062-0.54857zm1.7868 4.4983c0.0313-0.15674 0.047-0.30302 0.047-0.43886 0-0.43886-0.1254-0.77845-0.3762-1.0188-0.2403-0.24033-0.5538-0.36049-0.9404-0.36049-0.4597 0-0.8725 0.16195-1.2382 0.48587-0.3657 0.31347-0.5956 0.75755-0.6896 1.3322-0.0314 0.15673-0.047 0.30824-0.047 0.45453 0 0.43886 0.1201 0.77845 0.3604 1.0188 0.2508 0.24033 0.5695 0.36053 0.9561 0.36053 0.4598 0 0.8725-0.162 1.2382-0.48591 0.3657-0.32392 0.5956-0.77323 0.6897-1.3479zm8.3471-2.7899c0.4284-0.512 0.9143-0.91951 1.4576-1.2225s1.0971-0.45453 1.6614-0.45453l-0.5643 3.2758h-0.862c-0.6478 0-1.1546 0.12017-1.5203 0.36049-0.3657 0.24033-0.6113 0.65829-0.7367 1.2539l-0.7053 3.981h-3.0877l1.5674-8.7928h3.072l-0.2821 1.5987zm2.8861 2.7899c0.1672-0.90906 0.4754-1.7032 0.9247-2.3824s0.9875-1.2016 1.6144-1.5674c0.6374-0.36571 1.3061-0.54857 2.0062-0.54857 0.606 0 1.1076 0.12017 1.5047 0.36049 0.397 0.24033 0.6739 0.56425 0.8306 0.97176l0.2195-1.2225h3.072l-1.5517 8.7928h-3.072l0.2194-1.2225c-0.303 0.4075-0.7001 0.7314-1.1912 0.9717-0.4911 0.2404-1.0344 0.3605-1.63 0.3605-0.9195 0-1.6562-0.303-2.21-0.909-0.5538-0.6165-0.8306-1.4524-0.8306-2.5078 0-0.34482 0.0313-0.71053 0.094-1.0971zm6.3321 0c0.0313-0.15674 0.047-0.30302 0.047-0.43886 0-0.43886-0.1254-0.77845-0.3762-1.0188-0.2403-0.24033-0.5538-0.36049-0.9404-0.36049-0.4597 0-0.8725 0.16195-1.2382 0.48587-0.3657 0.31347-0.5956 0.75755-0.6896 1.3322-0.0314 0.15673-0.047 0.30824-0.047 0.45453 0 0.43886 0.1201 0.77845 0.3605 1.0188 0.2507 0.24033 0.5694 0.36053 0.956 0.36053 0.4598 0 0.8725-0.162 1.2382-0.48591 0.3658-0.32392 0.5956-0.77323 0.6897-1.3479zm17.046-4.4669c0.95 0 1.682 0.25077 2.194 0.75233 0.522 0.50155 0.784 1.1964 0.784 2.0846 0 0.34481-0.027 0.64783-0.079 0.90906l-0.909 5.1252h-3.0562l0.8302-4.7177c0.021-0.16718 0.032-0.28212 0.032-0.34482 0-0.36571-0.11-0.64783-0.329-0.84636-0.209-0.19854-0.5071-0.2978-0.8937-0.2978-0.418 0-0.7785 0.11494-1.0815 0.34482-0.2926 0.21942-0.4911 0.53289-0.5956 0.9404l-0.8777 4.9215h-3.072l0.8307-4.7177c0.0209-0.08359 0.0313-0.20898 0.0313-0.37616 0-0.35527-0.1097-0.62694-0.3291-0.81502-0.209-0.19854-0.5016-0.2978-0.8777-0.2978-0.4389 0-0.8098 0.12539-1.1128 0.37616-0.3031 0.24033-0.5068 0.58515-0.6113 1.0344l-0.8464 4.7961h-3.0876l1.5673-8.7928h3.072l-0.2038 1.1442c0.324-0.37616 0.721-0.67396 1.1912-0.89339 0.4807-0.21943 1.0084-0.32914 1.583-0.32914 0.6479 0 1.1965 0.14106 1.6458 0.42318 0.4597 0.28213 0.7889 0.67919 0.9874 1.1912 0.397-0.48066 0.8777-0.86727 1.4419-1.1598 0.5643-0.30302 1.1546-0.45453 1.7716-0.45453z" fill="#010101"/>
</svg>
